<svg  viewBox="0 0 32 32" fill="none" xmlns="http://www.w3.org/2000/svg">
<path d="M28.1199 9.30677C26.9866 8.05344 25.0932 7.42677 22.3466 7.42677H22.0266V7.37344C22.0266 5.13344 22.0266 2.36011 17.0132 2.36011H14.9866C9.97322 2.36011 9.97322 5.14677 9.97322 7.37344V7.44011H9.65322C6.89322 7.44011 5.01322 8.06677 3.87989 9.32011C2.55989 10.7868 2.59989 12.7601 2.73322 14.1068L2.74655 14.2001L2.87989 15.6001C2.89322 15.6134 2.91989 15.6401 2.94655 15.6534C3.38655 15.9468 3.83989 16.2401 4.31989 16.5068C4.50655 16.6268 4.70655 16.7334 4.90655 16.8401C7.18655 18.0934 9.69322 18.9334 12.2399 19.3468C12.3599 20.6001 12.9066 22.0668 15.8266 22.0668C18.7466 22.0668 19.3199 20.6134 19.4132 19.3201C22.1332 18.8801 24.7599 17.9334 27.1332 16.5468C27.2132 16.5068 27.2666 16.4668 27.3332 16.4268C27.9466 16.0801 28.5199 15.7068 29.0799 15.2934C29.1066 15.2801 29.1332 15.2534 29.1466 15.2268L29.1999 14.7468L29.2666 14.1201C29.2799 14.0401 29.2799 13.9734 29.2932 13.8801C29.3999 12.5334 29.3732 10.6934 28.1199 9.30677ZM17.4532 18.4401C17.4532 19.8534 17.4532 20.0668 15.8132 20.0668C14.1732 20.0668 14.1732 19.8134 14.1732 18.4534V16.7734H17.4532V18.4401ZM11.8799 7.42677V7.37344C11.8799 5.10677 11.8799 4.26677 14.9866 4.26677H17.0132C20.1199 4.26677 20.1199 5.12011 20.1199 7.37344V7.44011H11.8799V7.42677Z" fill="#4864E1"/>
<path opacity="0.4" d="M27.3332 16.4C27.2665 16.44 27.1999 16.48 27.1332 16.52C24.7599 17.9066 22.1332 18.84 19.4132 19.2933C19.3065 20.5733 18.7465 22.04 15.8265 22.04C12.9065 22.04 12.3465 20.5866 12.2399 19.32C9.69322 18.92 7.18655 18.08 4.90655 16.8133C4.70655 16.7066 4.50655 16.6 4.31988 16.48C3.83988 16.2133 3.38655 15.92 2.94655 15.6266C2.91988 15.6133 2.89322 15.5866 2.87988 15.5733L3.69322 24.2533C3.97322 26.9066 5.06655 29.6399 10.9332 29.6399H21.0932C26.9599 29.6399 28.0532 26.9066 28.3332 24.24L29.1732 15.2C29.1599 15.2266 29.1332 15.2533 29.1065 15.2666C28.5332 15.68 27.9465 16.0666 27.3332 16.4Z" fill="#4864E1"/>
</svg>
