<svg  viewBox="0 0 17 16" fill="none" xmlns="http://www.w3.org/2000/svg">
<path d="M11.1667 15.1666H5.83332C2.75332 15.1666 2.17999 13.7333 2.03332 12.3399L1.53332 6.99993C1.45999 6.29993 1.43999 5.26659 2.13332 4.49326C2.73332 3.82659 3.72666 3.50659 5.16666 3.50659H11.8333C13.28 3.50659 14.2733 3.83326 14.8667 4.49326C15.56 5.26659 15.54 6.29993 15.4667 7.00659L14.9667 12.3333C14.82 13.7333 14.2467 15.1666 11.1667 15.1666ZM5.16666 4.49993C4.03999 4.49993 3.26666 4.71992 2.87332 5.15992C2.54666 5.51992 2.43999 6.07326 2.52666 6.89993L3.02666 12.2399C3.13999 13.2933 3.42666 14.1666 5.83332 14.1666H11.1667C13.5667 14.1666 13.86 13.2933 13.9733 12.2333L14.4733 6.90659C14.56 6.07326 14.4533 5.51992 14.1267 5.15992C13.7333 4.71992 12.96 4.49993 11.8333 4.49993H5.16666Z" fill="#636366"/>
<path d="M11.1668 4.49992C10.8935 4.49992 10.6668 4.27325 10.6668 3.99992V3.46659C10.6668 2.27992 10.6668 1.83325 9.0335 1.83325H7.96683C6.3335 1.83325 6.3335 2.27992 6.3335 3.46659V3.99992C6.3335 4.27325 6.10683 4.49992 5.8335 4.49992C5.56016 4.49992 5.3335 4.27325 5.3335 3.99992V3.46659C5.3335 2.29325 5.3335 0.833252 7.96683 0.833252H9.0335C11.6668 0.833252 11.6668 2.29325 11.6668 3.46659V3.99992C11.6668 4.27325 11.4402 4.49992 11.1668 4.49992Z" fill="#636366"/>
<path d="M8.49984 11.1667C6.6665 11.1667 6.6665 10.0333 6.6665 9.35333V8.66667C6.6665 7.72667 6.89317 7.5 7.83317 7.5H9.1665C10.1065 7.5 10.3332 7.72667 10.3332 8.66667V9.33333C10.3332 10.0267 10.3332 11.1667 8.49984 11.1667ZM7.6665 8.5C7.6665 8.55333 7.6665 8.61333 7.6665 8.66667V9.35333C7.6665 10.04 7.6665 10.1667 8.49984 10.1667C9.33317 10.1667 9.33317 10.06 9.33317 9.34667V8.66667C9.33317 8.61333 9.33317 8.55333 9.33317 8.5C9.27984 8.5 9.21984 8.5 9.1665 8.5H7.83317C7.77984 8.5 7.71984 8.5 7.6665 8.5Z" fill="#636366"/>
<path d="M9.8335 9.84675C9.58683 9.84675 9.36683 9.66008 9.34016 9.40674C9.30683 9.13341 9.50016 8.88008 9.7735 8.84675C11.5335 8.62675 13.2202 7.96008 14.6402 6.92675C14.8602 6.76008 15.1735 6.81341 15.3402 7.04008C15.5002 7.26008 15.4535 7.57341 15.2268 7.74008C13.6668 8.87341 11.8268 9.60008 9.8935 9.84675C9.8735 9.84675 9.8535 9.84675 9.8335 9.84675Z" fill="#636366"/>
<path d="M7.16666 9.85343C7.14666 9.85343 7.12666 9.85343 7.10666 9.85343C5.27999 9.64676 3.49999 8.9801 1.95999 7.92676C1.73333 7.77343 1.67333 7.4601 1.82666 7.23343C1.97999 7.00676 2.29333 6.94676 2.51999 7.1001C3.92666 8.0601 5.54666 8.66676 7.21333 8.8601C7.48666 8.89343 7.68666 9.1401 7.65333 9.41343C7.63333 9.66676 7.41999 9.85343 7.16666 9.85343Z" fill="#636366"/>
</svg>
