<svg  viewBox="0 0 17 16" fill="none" xmlns="http://www.w3.org/2000/svg">
<path d="M8.50016 14.4333C8.2935 14.4333 8.0935 14.4066 7.92683 14.3467C5.38016 13.4733 1.3335 10.3733 1.3335 5.79332C1.3335 3.45998 3.22016 1.56665 5.54016 1.56665C6.66683 1.56665 7.72016 2.00665 8.50016 2.79332C9.28016 2.00665 10.3335 1.56665 11.4602 1.56665C13.7802 1.56665 15.6668 3.46665 15.6668 5.79332C15.6668 10.38 11.6202 13.4733 9.0735 14.3467C8.90683 14.4066 8.70683 14.4333 8.50016 14.4333ZM5.54016 2.56665C3.7735 2.56665 2.3335 4.01332 2.3335 5.79332C2.3335 10.3466 6.7135 12.88 8.2535 13.4066C8.3735 13.4466 8.6335 13.4466 8.7535 13.4066C10.2868 12.88 14.6735 10.3533 14.6735 5.79332C14.6735 4.01332 13.2335 2.56665 11.4668 2.56665C10.4535 2.56665 9.5135 3.03998 8.90683 3.85998C8.72016 4.11332 8.2935 4.11332 8.10683 3.85998C7.48683 3.03332 6.5535 2.56665 5.54016 2.56665Z" fill="#636366"/>
</svg>
