<svg  viewBox="0 0 40 40" fill="none" xmlns="http://www.w3.org/2000/svg">
<rect x="0.5" y="0.5" width="39" height="39" rx="19.5" stroke="#E9EBED"/>
<path fill-rule="evenodd" clip-rule="evenodd" d="M19.7484 9.00024C22.6214 9.00024 25.3214 10.1172 27.3494 12.1462C31.5414 16.3382 31.5414 23.1582 27.3494 27.3502C25.2944 29.4062 22.5274 30.4942 19.7244 30.4942C18.1964 30.4942 16.6584 30.1712 15.2194 29.5052C14.7954 29.3352 14.3984 29.1752 14.1134 29.1752C13.7854 29.1772 13.3444 29.3292 12.9184 29.4762C12.0444 29.7762 10.9564 30.1502 10.1514 29.3482C9.34944 28.5452 9.71944 27.4602 10.0174 26.5872C10.1644 26.1572 10.3154 25.7132 10.3154 25.3772C10.3154 25.1012 10.1824 24.7492 9.97844 24.2422C8.10544 20.1972 8.97144 15.3222 12.1484 12.1472C14.1764 10.1182 16.8754 9.00024 19.7484 9.00024ZM19.7494 10.5002C17.2764 10.5002 14.9534 11.4622 13.2084 13.2082C10.4744 15.9402 9.73044 20.1352 11.3554 23.6482C11.5894 24.2272 11.8154 24.7912 11.8154 25.3772C11.8154 25.9622 11.6144 26.5512 11.4374 27.0712C11.2914 27.4992 11.0704 28.1452 11.2124 28.2872C11.3514 28.4312 12.0014 28.2042 12.4304 28.0572C12.9454 27.8812 13.5294 27.6792 14.1084 27.6752C14.6884 27.6752 15.2354 27.8952 15.8144 28.1282C19.3614 29.7682 23.5564 29.0222 26.2894 26.2902C29.8954 22.6822 29.8954 16.8132 26.2894 13.2072C24.5434 11.4612 22.2214 10.5002 19.7494 10.5002ZM23.6963 19.1629C24.2483 19.1629 24.6963 19.6099 24.6963 20.1629C24.6963 20.7159 24.2483 21.1629 23.6963 21.1629C23.1443 21.1629 22.6923 20.7159 22.6923 20.1629C22.6923 19.6099 23.1353 19.1629 23.6873 19.1629H23.6963ZM19.6875 19.1629C20.2395 19.1629 20.6875 19.6099 20.6875 20.1629C20.6875 20.7159 20.2395 21.1629 19.6875 21.1629C19.1355 21.1629 18.6835 20.7159 18.6835 20.1629C18.6835 19.6099 19.1255 19.1629 19.6785 19.1629H19.6875ZM15.6783 19.1629C16.2303 19.1629 16.6783 19.6099 16.6783 20.1629C16.6783 20.7159 16.2303 21.1629 15.6783 21.1629C15.1263 21.1629 14.6743 20.7159 14.6743 20.1629C14.6743 19.6099 15.1173 19.1629 15.6693 19.1629H15.6783Z" fill="black"/>
</svg>
