<svg viewBox="0 0 40 40" fill="none" xmlns="http://www.w3.org/2000/svg">
<rect x="0.5" y="0.5" width="39" height="39" rx="19.5" stroke="#E9EBED"/>
<path fill-rule="evenodd" clip-rule="evenodd" d="M18.3242 28.106C18.8422 28.683 19.5072 29 20.1972 29H20.1982C20.8912 29 21.5592 28.683 22.0782 28.105C22.3562 27.798 22.8302 27.773 23.1372 28.05C23.4452 28.327 23.4702 28.802 23.1932 29.109C22.3852 30.006 21.3222 30.5 20.1982 30.5H20.1962C19.0752 30.499 18.0142 30.005 17.2092 29.108C16.9322 28.801 16.9572 28.326 17.2652 28.05C17.5732 27.772 18.0472 27.797 18.3242 28.106ZM20.247 9C24.692 9 27.678 12.462 27.678 15.695C27.678 17.358 28.101 18.063 28.55 18.811C28.994 19.549 29.497 20.387 29.497 21.971C29.148 26.018 24.923 26.348 20.247 26.348C15.571 26.348 11.345 26.018 11 22.035C10.997 20.387 11.5 19.549 11.944 18.811L12.1008 18.5472C12.4867 17.8839 12.816 17.1624 12.816 15.695C12.816 12.462 15.802 9 20.247 9ZM20.247 10.5C16.752 10.5 14.316 13.238 14.316 15.695C14.316 17.774 13.739 18.735 13.229 19.583C12.82 20.264 12.497 20.802 12.497 21.971C12.664 23.857 13.909 24.848 20.247 24.848C26.55 24.848 27.834 23.813 28 21.906C27.997 20.802 27.674 20.264 27.265 19.583C26.755 18.735 26.178 17.774 26.178 15.695C26.178 13.238 23.742 10.5 20.247 10.5Z" fill="black"/>
</svg>
