<svg  viewBox="0 0 17 16" fill="none" xmlns="http://www.w3.org/2000/svg">
<path d="M8.16683 14.4999C4.40016 14.4999 1.3335 11.4333 1.3335 7.66659C1.3335 3.89992 4.40016 0.833252 8.16683 0.833252C11.9335 0.833252 15.0002 3.89992 15.0002 7.66659C15.0002 11.4333 11.9335 14.4999 8.16683 14.4999ZM8.16683 1.83325C4.94683 1.83325 2.3335 4.45325 2.3335 7.66659C2.3335 10.8799 4.94683 13.4999 8.16683 13.4999C11.3868 13.4999 14.0002 10.8799 14.0002 7.66659C14.0002 4.45325 11.3868 1.83325 8.16683 1.83325Z" fill="#636366"/>
<path d="M15.1666 15.1666C15.04 15.1666 14.9133 15.12 14.8133 15.02L13.48 13.6866C13.2866 13.4933 13.2866 13.1733 13.48 12.98C13.6733 12.7866 13.9933 12.7866 14.1866 12.98L15.52 14.3133C15.7133 14.5066 15.7133 14.8266 15.52 15.02C15.42 15.12 15.2933 15.1666 15.1666 15.1666Z" fill="#636366"/>
</svg>
